
<mxfile host="app.diagrams.net">
  <diagram name="EnhancedPentestWorkflow" id="enhancedPentestWorkflow">
    <mxGraphModel dx="1000" dy="1000" grid="1" gridSize="10" guides="1" tooltips="1" connect="1" arrows="1" fold="1" page="1" pageScale="1" pageWidth="827" pageHeight="1169" math="0" shadow="0">
      <root>
        <mxCell id="0" />
        <mxCell id="1" parent="0" />
        <!-- Client -->
        <mxCell id="Client" value="Client
+ clientId: String
+ name: String
+ BU: String
+ submitPentestRequest()
+ trackRequestStatus()
+ viewReports()" style="rounded=1;whiteSpace=wrap;html=1;" vertex="1" parent="1">
          <mxGeometry x="100" y="100" width="180" height="120" as="geometry" />
        </mxCell>
        <!-- PentestRequest -->
        <mxCell id="PentestRequest" value="PentestRequest
+ requestId: String
+ type: String
+ status: String
+ priority: String
+ timeLines: Date
+ submissionDate: Date
+ updateStatus()
+ assignPentester()
+ reschedule()" style="rounded=1;whiteSpace=wrap;html=1;" vertex="1" parent="1">
          <mxGeometry x="300" y="100" width="240" height="160" as="geometry" />
        </mxCell>
        <!-- Pentester -->
        <mxCell id="Pentester" value="Pentester
+ pentesterId: String
+ name: String
+ calendar: Calendar
+ scheduleWalkthrough()
+ updateCalendar()
+ submitArtifacts()
+ prepareDraftReport()" style="rounded=1;whiteSpace=wrap;html=1;" vertex="1" parent="1">
          <mxGeometry x="600" y="100" width="220" height="140" as="geometry" />
        </mxCell>
        <!-- QAReviewer -->
        <mxCell id="QAReviewer" value="QA Reviewer
+ reviewerId: String
+ name: String
+ reviewDraftReport()
+ escalateIssues()" style="rounded=1;whiteSpace=wrap;html=1;" vertex="1" parent="1">
          <mxGeometry x="300" y="300" width="200" height="120" as="geometry" />
        </mxCell>
        <!-- ControlSystem -->
        <mxCell id="ControlSystem" value="Control System
+ controlId: String
+ name: String
+ syncStatus()
+ processFinalReport()
+ notifyAccessRevocation()" style="rounded=1;whiteSpace=wrap;html=1;" vertex="1" parent="1">
          <mxGeometry x="600" y="300" width="240" height="140" as="geometry" />
        </mxCell>
        <!-- VMS -->
        <mxCell id="VMS" value="Vulnerability Management System (VMS)
+ reportId: String
+ vulnerabilityCount: Int
+ storeVulnerabilities()
+ updatePowerBIDashboard()
+ publishReport()" style="rounded=1;whiteSpace=wrap;html=1;" vertex="1" parent="1">
          <mxGeometry x="600" y="500" width="260" height="160" as="geometry" />
        </mxCell>
        <!-- Relationships -->
        <mxCell id="rel1" value="submits" edge="1" parent="1" source="Client" target="PentestRequest" style="edgeStyle=orthogonalEdgeStyle;rounded=1;">
          <mxGeometry relative="1" as="geometry" />
        </mxCell>
        <mxCell id="rel2" value="assigned to" edge="1" parent="1" source="PentestRequest" target="Pentester" style="edgeStyle=orthogonalEdgeStyle;rounded=1;">
          <mxGeometry relative="1" as="geometry" />
        </mxCell>
        <mxCell id="rel3" value="provides draft report to" edge="1" parent="1" source="Pentester" target="QAReviewer" style="edgeStyle=orthogonalEdgeStyle;rounded=1;">
          <mxGeometry relative="1" as="geometry" />
        </mxCell>
        <mxCell id="rel4" value="provides validation feedback to" edge="1" parent="1" source="QAReviewer" target="Pentester" style="edgeStyle=orthogonalEdgeStyle;rounded=1;">
          <mxGeometry relative="1" as="geometry" />
        </mxCell>
        <mxCell id="rel5" value="submits final report to" edge="1" parent="1" source="Pentester" target="ControlSystem" style="edgeStyle=orthogonalEdgeStyle;rounded=1;">
          <mxGeometry relative="1" as="geometry" />
        </mxCell>
        <mxCell id="rel6" value="publishes vulnerabilities to" edge="1" parent="1" source="ControlSystem" target="VMS" style="edgeStyle=orthogonalEdgeStyle;rounded=1;">
          <mxGeometry relative="1" as="geometry" />
        </mxCell>
        <mxCell id="rel7" value="notifies access revocation" edge="1" parent="1" source="ControlSystem" target="Client" style="edgeStyle=orthogonalEdgeStyle;rounded=1;">
          <mxGeometry relative="1" as="geometry" />
        </mxCell>
      </root>
    </mxGraphModel>
  </diagram>
</mxfile>
